<?xml version="1.0" encoding="utf-8"?>
<!-- Generator: Adobe Illustrator 15.0.0, SVG Export Plug-In . SVG Version: 6.00 Build 0)  -->
<!DOCTYPE svg PUBLIC "-//W3C//DTD SVG 1.1//EN" "http://www.w3.org/Graphics/SVG/1.1/DTD/svg11.dtd">
<svg version="1.1" id="Capa_1" xmlns="http://www.w3.org/2000/svg" xmlns:xlink="http://www.w3.org/1999/xlink" x="0px" y="0px"
	 width="635px" height="160px" viewBox="0 0 635 160" enable-background="new 0 0 635 160" xml:space="preserve">
<path fill-rule="evenodd" clip-rule="evenodd" fill="#7F7F7F" d="M542.263,76.15c-0.175,0.15-0.525,0.737-1.051,1.762
	c-0.449,1.1-0.736,2.738-0.862,4.913c-0.024,1.6,0,2.65,0.075,3.15c0.101,0.5,0.438,1.3,1.013,2.4
	c0.65,1.25,1.225,2.163,1.725,2.738c0.525,0.575,1.525,1.362,3,2.362c1.325,0.95,2.325,1.462,3,1.538
	c0.501,0,1.288-0.313,2.362-0.938c1.051-0.675,2.025-1.45,2.926-2.325c1.1-1,1.949-2.25,2.55-3.75
	c0.65-1.525,0.975-3.075,0.975-4.65c0-1.4-0.112-2.162-0.337-2.288c-0.2-0.125-0.301-0.387-0.301-0.787c0-0.9-0.8-2.2-2.399-3.9
	c-1.575-1.65-3.226-2.938-4.95-3.862c-1.449-0.725-2.337-1.087-2.662-1.087c-0.226,0-0.662,0.313-1.313,0.938
	c-0.601,0.675-1.051,1.012-1.351,1.012s-0.712,0.438-1.237,1.313C542.899,75.563,542.512,76.05,542.263,76.15z M501.688,61.338
	c-0.575-0.325-0.95-0.313-1.125,0.037c-0.175,0.35-0.263,1.238-0.263,2.663c0,1.825,0.138,2.788,0.412,2.888
	c0.351,0.15,0.601,0.188,0.75,0.112c0.175-0.125,0.538-0.513,1.088-1.163c0.6-0.75,0.938-1.3,1.013-1.65
	c0.025-0.375-0.188-0.775-0.638-1.2C502.3,62,501.888,61.438,501.688,61.338z M536.787,44.125L548.6,44.8
	c5.575,0.7,9.638,1.15,12.188,1.35c5.426,0.6,8.601,0.975,9.525,1.125c0.351,0.075,0.6,0.45,0.75,1.125
	c0.125,0.625,0.313,2.125,0.563,4.5c0.075,0.9,0.175,1.475,0.3,1.725c0.125,0.275,0.412,0.513,0.862,0.713
	c0.426,0.2,0.801,0.3,1.125,0.3c0.3,0,0.775-0.1,1.425-0.3c0.951-0.225,2.001-0.338,3.15-0.338c1.125,0,3.238,0.113,6.338,0.338
	l8.25,0.637c1.825,0.125,3.188,0.413,4.087,0.863c0.9,0.45,2.263,1.563,4.088,3.337l2.175,1.987l-2.025,2.063
	c-1.299,1.3-2.075,1.95-2.324,1.95c-0.275,0-0.638,0.288-1.088,0.862c-0.425,0.525-0.638,0.962-0.638,1.313
	c0,0.675,0.538,1.85,1.612,3.525c1.2,1.95,2.063,3.888,2.588,5.813c0.3,0.875,0.713,1.463,1.237,1.763
	c0.525,0.275,1.775,0.587,3.75,0.938l6.487,1.275v1.95c0,1.15-0.124,2.275-0.375,3.375c-0.2,1.1-0.475,1.837-0.824,2.212
	c-0.226,0.25-0.601,0.4-1.125,0.45c-0.45,0.05-1.476,0.075-3.075,0.075c-2.476,0-3.788,0.125-3.938,0.375
	c-0.15,0.225-0.575,0.337-1.275,0.337c-0.5,0-1.025,0.213-1.575,0.638c-0.6,0.375-0.899,0.75-0.899,1.125
	c0,0.3-0.475,1.112-1.425,2.438c-0.95,1.35-1.801,2.413-2.551,3.188c-1.299,1.4-1.875,2.475-1.725,3.225
	c0.101,0.75,1.112,2.175,3.037,4.275l1.763,1.875l-1.125,1.125c-0.275,0.275-4.425,1.625-12.45,4.05c-7.999,2.4-12.3,3.6-12.899,3.6
	c-1.325,0-2.663-0.337-4.013-1.012c-1.35-0.7-2.188-0.975-2.513-0.825c-0.574,0.25-1.213,1.462-1.912,3.638
	c-0.2,0.575-0.388,0.95-0.563,1.125c-0.175,0.175-0.513,0.275-1.013,0.3c-0.351,0.025-3.6,0.625-9.75,1.8
	c-6.2,1.175-9.324,1.8-9.375,1.875c-0.175,0.3-4.838,0.188-13.987-0.337c-0.226-0.025-0.662-1.4-1.313-4.125
	c-0.675-2.775-1.149-4.263-1.425-4.462c-0.45-0.225-2.388-0.8-5.813-1.725c-3.625-1-5.513-1.375-5.663-1.125
	c-0.05,0.1-1.963,0.388-5.737,0.863c-3.726,0.5-5.899,0.75-6.525,0.75c-0.75,0-1.962-0.425-3.637-1.275
	c-1.525-0.9-2.313-1.35-2.363-1.35c-0.174,0-0.95,0.662-2.324,1.987c-1.426,1.3-2.35,1.95-2.775,1.95
	c-0.2,0-4.088,1.125-11.662,3.375c-7.6,2.25-11.425,3.425-11.476,3.525c-0.149,0.225-3.249,0.337-9.3,0.337h-9.075l-9.675-9.638
	V98.238c0-8.85,0.138-13.388,0.412-13.613C441.462,84.3,451.1,84,470,83.725c7.274-0.15,11.212-0.262,11.813-0.337
	c0.45-0.1,0.75-0.512,0.899-1.237c0.45-2.875,0.801-4.463,1.051-4.763c0.175-0.3,0.862-0.55,2.063-0.75
	c1.199-0.2,2.563-0.3,4.087-0.3c2.051,0,3.625-0.163,4.726-0.488c1.05-0.325,1.749-0.837,2.1-1.538
	c0.325-0.725,0.45-1.287,0.375-1.688c-0.024-0.275-0.763-0.425-2.213-0.45c-1.5-0.075-5.524-0.113-12.074-0.113
	c-9.45,0-14.275-0.112-14.476-0.337c-0.275-0.25-9.088-0.525-26.438-0.825l-9.112-0.188v41.625c-4.05,1.4-8.1,2.8-12.15,4.2
	c-8.149,2.85-12.237,4.313-12.262,4.388c-0.126,0.225-3.126,0.337-9,0.337h-8.7l-2.288-2.325c-1.125-1.125-1.861-1.8-2.212-2.025
	c-0.35-0.2-0.875-0.3-1.575-0.3c-0.399,0-2.762,0.688-7.088,2.063c-4.249,1.4-6.425,2.15-6.524,2.25
	c-0.1,0.225-9.413,0.337-27.938,0.337h-27.675l-4.051-4.013c-2.699-2.6-4.237-3.837-4.612-3.712
	c-0.05,0.025-3.563,1.25-10.537,3.675c-6.85,2.4-10.325,3.637-10.425,3.712c-0.2,0.225-6.301,0.3-18.301,0.225l-18.037-0.075
	l-0.075-3.563c-0.05-1.725-0.125-2.725-0.225-3c-0.075-0.325-0.3-0.487-0.675-0.487c-0.226,0-3.538,1.125-9.938,3.375
	c-6.425,2.25-9.662,3.425-9.713,3.525c-0.175,0.225-7.325,0.337-21.45,0.337c-14.15,0-21.313-0.112-21.487-0.337
	c-4.3-2.875-6.875-4.313-7.725-4.313c-0.4,0-2.763,0.688-7.088,2.063c-4.225,1.375-6.399,2.125-6.525,2.25
	c-0.249,0.25-3.312,0.325-9.188,0.225l-8.813-0.075l-0.188-5.1c-3.274,0.8-6.563,1.6-9.862,2.4c-6.6,1.625-9.912,2.475-9.938,2.55
	c-0.125,0.225-3.1,0.337-8.925,0.337h-8.775l-9.675-9.675v-15.9h-1.575c-0.425,0-2.25,0.363-5.475,1.088
	c-3.2,0.725-4.862,1.137-4.987,1.237c-0.25,0.25-0.375,2.6-0.375,7.05c0,2.875-0.038,4.738-0.112,5.588
	c-0.05,0.775-0.226,1.288-0.525,1.537c-0.1,0.1-4.3,1.563-12.6,4.388c-8.325,2.85-12.501,4.3-12.525,4.35
	c-0.1,0.225-4.712,0.337-13.838,0.337H33.5l-9.675-9.675V69.925L47.037,46.75l4.388-0.262c2.175-0.15,21.787-0.225,58.838-0.225
	l54.262,0.112l5.288,1.313c4.575,1.175,7.388,1.863,8.438,2.063c1.074,0.225,1.837,0.25,2.287,0.075
	c0.525-0.175,0.876-0.388,1.05-0.638c0.101-0.225,0.65-0.663,1.65-1.313c1.176-0.775,3.25-1.25,6.225-1.425
	c2.95-0.2,9.676-0.237,20.176-0.112c12.275,0.125,19.425,0.163,21.449,0.112c1.2-0.05,25.075-0.075,71.625-0.075H371l6.75,1.763
	c4.5,1.075,7.087,1.65,7.763,1.725c0.774,0,1.6-0.425,2.475-1.275c1.176-1.125,2.213-1.775,3.112-1.95
	c0.85-0.125,3.438-0.175,7.763-0.15c10.149,0.15,16.938,0.112,20.362-0.113c3.4-0.2,6.763-0.125,10.088,0.225
	c3.275,0.3,7.563,1,12.862,2.1c1.926,0.425,3.225,0.6,3.9,0.525c0.7-0.1,1.412-0.5,2.137-1.2c0.601-0.6,1.112-0.975,1.538-1.125
	c0.425-0.125,1.449-0.275,3.075-0.45c2.024-0.2,6.6-0.263,13.725-0.188c4.899,0.075,8.038,0.163,9.412,0.263
	c1.376,0.125,2.938,0.387,4.688,0.787l19.5,4.613l0.113,1.05c0.05,0.725,0.225,1.15,0.524,1.275c0.351,0.075,1.525-0.375,3.525-1.35
	l3.075-1.538l11.287,0.712c0.5,0.05,3.563,0.238,9.188,0.563c2.8,0.1,4.524,0.063,5.175-0.112c0.601-0.175,1.025-0.738,1.275-1.688
	c0.125-0.575,0.388-1.3,0.787-2.175L536.787,44.125z M227.112,71.425l-0.375,1.05c-0.25,0.775-0.375,4.488-0.375,11.138
	c0,5.15,0.075,8.438,0.225,9.862c0.175,1.45,0.563,2.363,1.163,2.738c0.2,0.15,3.563,0.3,10.087,0.45l11.438,0.3v-6
	c0-4,0.126-6.113,0.375-6.338c0.426-0.225,1.675-0.412,3.75-0.563l17.213-1.2c2.875-0.2,10-0.375,21.375-0.525l16.95-0.15v0.825
	c0,0.575,0.438,0.925,1.313,1.05c0.85,0.125,2.9,0.125,6.149,0c2.976-0.1,9.663-0.212,20.063-0.337
	c9.7-0.15,14.913-0.262,15.638-0.337c0.351-0.075,0.575-0.388,0.675-0.938c0.051-0.5,0.075-2.212,0.075-5.138v-5.887l-17.138-0.15
	c-11.3-0.15-28.912-0.225-52.837-0.225c-23.95,0-39.138,0.075-45.563,0.225L227.112,71.425z M86.75,81.138l1.013,0.225
	c0.575,0.1,3.55,0.188,8.925,0.262c5.125,0,8.263,0.063,9.412,0.188c0.625,0.1,1.025,0.213,1.2,0.338
	c0.175,0.125,0.275,0.4,0.3,0.825c0.075,0.55,0.313,0.9,0.713,1.05c0.324,0.075,1.449,0.075,3.375,0l18-0.3
	c9.95-0.15,15.263-0.262,15.938-0.337c0.351-0.075,0.563-0.388,0.638-0.938c0.074-0.5,0.112-2.212,0.112-5.138v-5.887h-16.838
	c-11.274,0-16.963-0.113-17.063-0.337c-0.1-0.25-4.425-0.375-12.975-0.375H86.75V81.138z"/>
<path fill-rule="evenodd" clip-rule="evenodd" fill="#B3B3B3" d="M519.612,47.613l6.45-2.1l7.575-1.2l2.587-7.2l5.888-0.15
	l5.813,0.712l1.162,7.425l-0.074,0.113l6.787,1.8l6.338,2.85l0.188,0.112l5.287,3.525l4.35,4.313l3.075,4.875l1.688,5.175
	l0.188,5.325l-1.237,5.213l-2.7,4.987l-3.975,4.5l-5.175,3.862l-6.113,3.075L550.85,97l-8.1,1.2L536,98.313l-7.425-0.9l-7.013-1.875
	l-6.338-2.813l-5.475-3.675l-4.351-4.313l-3.074-4.875l-1.688-5.175L500.45,69.4l1.237-5.25l-1.313,0.6L499.138,70l0.149,5.663
	l-8.587-1.538l-0.188-4.462l1.012-4.2l8.851-0.713l1.388-2.587l1.35-2.55l3.9-4.313l1.35-0.638l1.2,0.675l4.95-3.713l5.887-2.962
	L519.612,47.613z M518.975,47.8l-6.112,3.075l-4.537,3.45l-5.063-6.75l2.699-2.025l4.801-2.438L518.975,47.8z M573.087,58.225
	l-4.688-4.612l-5.475-3.638L572,46.15l4.274,2.85l3.413,3.413L573.087,58.225z M587.375,78.7l-10.463,0.825l-0.188,0.412l1.351-6.75
	l-0.113-4.575L588.2,70.45l0.149,4.163L587.375,78.7z M533.638,44.313l0.412,1.125l7.2-0.15l7.125,0.863l0.638-0.938l-0.263-0.075
	l-7.388-1.05L533.638,44.313z M473.638,38.463V58.45h-28.463V44.275l5.963-5.813H473.638z M408.537,98.463h-14.55l-4.688-7.988
	V44.313l6-5.85H425l7.5,7.313V58.45h-23.963v12.337V98.463z M224.45,98.463h-35.926v-1.538l-5.475-7.5V44.313l6-5.85h33.9V58.45h-21
	v12.337v9.675h22.5V98.463z M39.087,98.463l1.5-0.038v-1.5l-7.5-7.5v-32.55l17.25-18.412H91.7V58.45H61.587v10.013h20.025v12h-19.95
	v18H39.087z M144.274,68.463h1.5V58.45h-1.5h-36.188V38.463h51.188l7.463,7.313l0.037,45.188l-7.5,7.5h-13.5v-18h-1.5h-15v18h-15
	l1.5-0.038v-1.462v-0.038h-0.037l-7.463-7.462v-21H144.274z M297.912,58.45h-58.5V38.463h58.5V58.45z M314.337,68.463l21.188-0.038
	v2.362v9.675h15h1.5V58.45h-1.5h-36.149V38.463h51.149l7.5,7.313v45.188l-7.5,7.5h-42.3L317,92.388l-2.362-2.288l-0.338-0.337
	L314.337,68.463z M466.138,98.463h-13.463v-1.538l-7.5-7.5v-21.15l28.388,0.075l0.075,22.613L466.138,98.463z M504.162,85.975
	l4.388,4.275l5.813,4.05l-7.425,3.15l-4.612-3.075l-3.563-3.525l5.438-4.8L504.162,85.975z M548.75,56.988l-4.125-1.125
	l-4.351-0.525l-4.462,0.075l-4.313,0.712l-4.05,1.275l-3.601,1.8l-3.037,2.288l-2.362,2.663l-1.575,2.925l-0.75,3.075l0.149,3.15
	l0.976,3.038l1.8,2.85l2.588,2.588l3.188,2.137l3.75,1.65l4.199,1.163l4.313,0.488l4.013-0.075l4.763-0.712l4.013-1.275l3.638-1.8
	l3.037-2.288l2.362-2.662l1.575-2.925l0.75-3.075l-0.15-3.15l-0.975-3.037l-1.8-2.85l-2.588-2.55l-3.188-2.175L548.75,56.988z
	 M543.649,99.963l-2.587,7.237l-5.888,0.112l-5.813-0.712l-1.125-7.35l-0.037-0.075l7.8,0.938L543.649,99.963z M569.975,89.313
	l0.038,0.038l2.625,3.075l0.037,0.038l2.7,3.262l-4.05,3l-4.801,2.438l-8.212-4.688l0.6-0.375l6.112-3.075L569.975,89.313z
	 M282.912,98.463h-28.5v-30h28.5V98.463z"/>
<path fill-rule="evenodd" clip-rule="evenodd" fill="#696969" d="M518.975,47.8l0.638-0.188l0.787,1.05l-5.887,2.962l-4.95,3.713
	l-1.2-0.675l-1.35,0.638l1.313-0.975l4.537-3.45L518.975,47.8z M549.013,45.213l-0.638,0.938l-7.125-0.863l-7.2,0.15l-0.412-1.125
	l7.725-0.225l7.388,1.05L549.013,45.213z M531.5,56.125l1.313,5.288l-3.3,1.05l-2.926,1.462l-2.475,1.837l-1.95,2.175l-1.274,2.4
	l-0.601,2.512l0.112,2.55l0.788,2.475l0.188,0.3l0.188,0.487l0.712,0.975l1.95,1.913l2.7,1.837l3.188,1.388l3.487,0.975l3.713,0.413
	l3.75-0.075l3.638-0.563l3.412-1.088l3.075-1.537l2.55-1.913l1.575-1.763l3.6-0.825l-2.362,2.662l-3.037,2.288l-3.638,1.8
	l-4.013,1.275l-4.763,0.712l-4.013,0.075l-4.313-0.488l-4.199-1.163l-3.75-1.65l-3.188-2.137l-2.588-2.588l-1.8-2.85l-0.976-3.038
	l-0.149-3.15l0.75-3.075l1.575-2.925l2.362-2.663l3.037-2.288l3.601-1.8L531.5,56.125z"/>
<path fill-rule="evenodd" clip-rule="evenodd" fill="#FFFFFF" d="M491.524,65.463l-1.012,4.2l0.188,4.462l-1.613-0.3l-0.188-4.163
	l1.013-4.087L491.524,65.463z M503.263,47.575l5.063,6.75l-1.313,0.975l-5.101-6.75h0.038L503.263,47.575z M443.638,58.45V45.775
	l1.537-1.5V58.45H443.638z M528.2,99.175l-7.275-1.913l-6.563-2.962l-5.813-4.05l-4.388-4.275l-3.149-4.95l-1.726-5.363L499.138,70
	l1.237-5.25l1.313-0.6l-1.237,5.25l0.188,5.287l1.688,5.175l3.074,4.875l4.351,4.313l5.475,3.675l6.338,2.813l7.013,1.875
	L528.2,99.175z M31.587,90.963V58.45l1.5-1.575v32.55l7.5,7.5v1.5l-1.5,0.038L31.587,90.963z M106.587,58.45V38.463h1.5V58.45
	H106.587z M181.55,90.963V45.775l1.5-1.463v45.113l5.475,7.5v1.538h-1.574L181.55,90.963z M237.912,58.45V38.463h1.5V58.45H237.912z
	 M312.837,58.45L312.8,38.5l0.037-0.037h1.538V58.45H312.837z M389.3,44.313v46.163l4.688,7.988h-1.8l-4.388-7.5V45.775
	L389.3,44.313z M451.138,98.463l-7.5-7.5V68.275h1.537v21.15l7.5,7.5v1.538H451.138z M505.287,98.125l-4.274-2.85l-3.413-3.413
	l1.163-1.013l3.563,3.525l4.612,3.075L505.287,98.125z M558.912,78.4l-3.6,0.825l0.45-0.825l0.637-1.238L557,74.65l-0.112-2.55
	l-0.788-2.475l-1.5-2.325l-2.063-2.1l-2.625-1.725l-3.075-1.387l1.913-5.1l3.787,1.65l3.188,2.175l2.588,2.55l1.8,2.85l0.975,3.037
	l0.15,3.15l-0.75,3.075L558.912,78.4z M254.412,68.463v30h-1.5v-30H254.412z M312.837,90.963V68.5l1.5-0.037l-0.037,21.3
	l0.338,0.337L317,92.388l6.225,6.075h-2.7l-6.225-6.075L312.837,90.963z M350.524,70.788V58.45h1.5v22.013h-1.5V70.788z
	 M106.774,90.963v-22.5h1.5v21l7.463,7.462l0.037,0.038v1.462l-1.5,0.038L106.774,90.963z M144.274,58.45h1.5v10.013h-1.5V58.45z
	 M144.274,98.463v-18h1.5v18H144.274z"/>
<path fill-rule="evenodd" clip-rule="evenodd" fill="#525252" d="M528.237,99.25l-1.35,14.588l-8.213-2.213l-7.425-3.3l3.112-14.025
	l6.563,2.962l7.275,1.913v0.075H528.237z M501.912,48.55l5.101,6.75l-3.9,4.313l-1.35,2.55l-4.575-5.4L501.912,48.55z"/>
<path fill-rule="evenodd" clip-rule="evenodd" fill="#252525" d="M581.787,91.675l-4.875-12.15l10.463-0.825l6.225,12.038
	L581.787,91.675z M558.313,96.475l2.513,14.325l-7.988,2.512l-8.55,1.388l-0.638-14.737l7.575-1.2L558.313,96.475z M541.063,107.2
	l0.3,15.675l-6.638,0.113l-6.563-0.788l1.2-15.6l5.813,0.712L541.063,107.2z M482.75,85.263l6.337-11.438l1.613,0.3l8.587,1.538
	L494.3,87.325L482.75,85.263z M408.537,70.788V58.45H432.5l7.35,12.337l3.788-12.337h1.537h28.463l3.712,12.337H474.2l-0.638-2.438
	l-28.388-0.075h-1.537H443.6l-0.563,2.512h-3.188H408.537z M466.138,98.463l1.837,22.313h-18.75l1.913-22.313h1.537H466.138z
	 M389.787,120.775l2.4-22.313h1.8h14.55v22.313H389.787z M365.524,98.463l5.513,22.313h-56.25l5.737-22.313h2.7H365.524z
	 M350.524,58.45v12.337h-15v-2.362l-21.188,0.038h-1.5l-1.012,2.325h-6.413h-21.899l-0.601-2.325h-28.5h-1.5l-0.6,2.325h-21.9
	H201.95V58.45h21l7.462,12.337l7.5-12.337h1.5h58.5l7.5,12.337l7.425-12.337h1.538H350.524z M282.912,98.463l3.75,22.313h-37.5
	l3.75-22.313h1.5H282.912z M183.537,120.775l3.413-22.313h1.574h35.926l5.962,22.313H183.537z M39.087,98.463h22.575v-18h19.95
	l5.063,18H61.662v22.313H33.537L39.087,98.463z M108.537,120.775l5.737-22.313h15v-18h15v18h1.5h13.5l5.513,22.313h-20.513V98.463
	h-15v22.313H108.537z M82.399,70.788l-0.787-2.325H61.587V58.45H91.7l7.462,12.337l7.425-12.337h1.5h36.188v10.013h-36h-1.5
	l-1.199,2.325h-6.413H82.399z M546.837,62.088v9.6l-3.337-0.9l-3.563-0.413l-3.601,0.075l-3.524,0.563l-3.3,1.05l-2.926,1.463
	l-2.475,1.837v-9.6l2.475-1.837l2.926-1.462l3.3-1.05l3.524-0.563l3.601-0.075l3.563,0.412L546.837,62.088z"/>
<path fill-rule="evenodd" clip-rule="evenodd" fill="#555555" d="M526.888,113.838l1.35-14.588l1.125,7.35l-1.2,15.6l-1.274-8.325
	h0.037L526.888,113.838z M498.763,90.85l-1.163,1.013l-0.862,2.288l-0.487-0.788l-1.95-6.038l4.987-11.663l1.726,5.363l3.149,4.95
	l0.038,0.075L498.763,90.85z M489.087,73.825l-6.337,11.438l-0.188-4.688l1.125-4.65l6.225-10.35l-1.013,4.087L489.087,73.825z
	 M443.638,68.275v22.688L439.85,111.4V83.275l3.188-12.488l0.563-2.512H443.638z M312.837,68.5v22.463l-7.425,20.438V83.275
	l6.413-12.488l1.012-2.325V68.5z M252.912,98.463l-3.75,22.313v-37.5l3.15-12.488l0.6-2.325V98.463z M106.774,68.463v22.5
	L99.162,111.4V83.275l6.413-12.488L106.774,68.463z M31.587,58.45v32.513L24.162,111.4V70.788L31.587,58.45z M99.162,70.788V45.775
	l7.425-7.313V58.45L99.162,70.788z M181.55,45.775v45.188l-7.388,20.438V55.15L181.55,45.775z M237.912,38.463V58.45l-7.5,12.337
	V45.775L237.912,38.463z M312.8,38.5l0.037,19.95l-7.425,12.337V45.775L312.8,38.5z M387.8,45.775v45.188l-7.388,20.438V55.15
	L387.8,45.775z M439.85,70.788V55.15l3.788-9.375V58.45L439.85,70.788z M555.763,78.4l-0.113,0.15l-1.05-1.65l-2.063-2.1
	l-2.625-1.725l-3.075-1.388v-9.6l3.075,1.387l2.625,1.725l2.063,2.1l1.5,2.325l0.788,2.475L557,74.65l-0.601,2.512L555.763,78.4z"/>
<path fill-rule="evenodd" clip-rule="evenodd" fill="#262626" d="M593.6,90.738L587.375,78.7l0.975-4.087L588.2,70.45l6.337,10.987
	l0.188,4.688L593.6,90.738z M541.362,122.875l-0.3-15.675l2.587-7.237l0.638,14.737L541.362,122.875z M477.35,70.788l-3.712-12.337
	V38.463l3.712,7.313V70.788z M477.35,111.4l-3.712-20.438l-0.075-22.613l0.638,2.438l3.149,12.488V111.4z M286.662,120.775
	l-3.75-22.313v-30l0.601,2.325l3.149,12.488V120.775z M230.412,120.775l-5.962-22.313v-18l5.962,17.813V120.775z M81.612,68.463
	l0.787,2.325l4.275,12.488v15.188l-5.063-18V68.463z M99.162,70.788L91.7,58.45V38.463l7.462,7.313V70.788z M174.162,55.15v56.25
	l-7.388-20.438l-0.037-45.188L174.162,55.15z M222.95,58.45V38.463l7.462,7.313v25.012L222.95,58.45z M297.912,58.45V38.463
	l7.5,7.313v25.012L297.912,58.45z M380.412,55.15v56.25l-7.388-20.438V45.775L380.412,55.15z M439.85,70.788L432.5,58.45V45.775
	l7.35,9.375V70.788z"/>
<path fill-rule="evenodd" clip-rule="evenodd" fill="#151515" d="M577.625,67.525l-1.351-4.275l-3.188-5.025l6.601-5.813l5.212,8.7
	L577.625,67.525z M576.912,79.525l4.875,12.15l-3.149,5.775l-1.95,2.212l3.375,10.275l-4.538,3.413l-5.438,2.7l-3.563-14.888
	l4.801-2.438l4.05-3l-2.7-3.262l-0.037-0.038l-2.625-3.075l-0.038-0.038l4.163-4.65l2.587-4.725L576.912,79.525z M514.362,94.3
	l-3.112,14.025l-10.2,4.313l4.237-14.513l1.65-0.675L514.362,94.3z M467.975,120.775l-1.837-22.313l7.5-7.5l3.712,20.438
	L467.975,120.775z M371.037,120.775l-5.513-22.313l7.5-7.5l7.388,20.438L371.037,120.775z M164.787,120.775l-5.513-22.313l7.5-7.5
	l7.388,20.438L164.787,120.775z M524.112,75.363l-1.95,2.175l-0.6,1.125l-0.188-0.487l-0.188-0.3l-0.788-2.475l-0.112-2.55
	l0.601-2.512l1.274-2.4l1.95-2.175V75.363z"/>
<path fill-rule="evenodd" clip-rule="evenodd" fill="#404040" d="M566.524,101.163l3.563,14.888l-9.262-5.25l-2.513-14.325
	L566.524,101.163z M505.287,98.125l-4.237,14.513l-4.838-3.225l-3.862-3.825l4.388-11.438l0.862-2.288l3.413,3.413L505.287,98.125z
	 M443.638,90.963l7.5,7.5l-1.913,22.313l-9.375-9.375L443.638,90.963z M392.188,98.463l-2.4,22.313l-9.375-9.375l7.388-20.438
	L392.188,98.463z M305.412,111.4l7.425-20.438l1.463,1.425l6.225,6.075l-5.737,22.313L305.412,111.4z M186.95,98.463l-3.413,22.313
	l-9.375-9.375l7.388-20.438L186.95,98.463z M108.537,120.775l-9.375-9.375l7.612-20.438l7.5,7.5L108.537,120.775z M39.087,98.463
	l-5.55,22.313l-9.375-9.375l7.425-20.438L39.087,98.463z"/>
<polygon fill-rule="evenodd" clip-rule="evenodd" fill="#717171" points="573.087,58.225 576.274,63.25 577.625,67.525 
	577.962,68.613 578.075,73.188 576.725,79.938 574.138,84.663 569.975,89.313 565.024,93.025 558.912,96.1 558.313,96.475 
	557.712,94.825 563.825,91.75 569,87.888 572.975,83.388 575.675,78.4 576.912,73.188 576.725,67.863 575.037,62.688 
	571.962,57.813 567.612,53.5 562.325,49.975 562.925,49.975 568.399,53.613 "/>
<polygon fill-rule="evenodd" clip-rule="evenodd" fill="#6E6E6E" points="532.813,61.413 531.5,56.125 535.813,55.413 
	540.274,55.338 544.625,55.863 548.75,56.988 546.837,62.088 543.5,61.188 539.938,60.775 536.337,60.85 "/>
<polygon fill-rule="evenodd" clip-rule="evenodd" fill="#2E2E2E" points="557.712,94.825 558.313,96.475 551.225,98.763 
	543.649,99.963 536,100.113 528.2,99.175 528.575,97.413 536,98.313 542.75,98.2 550.85,97 "/>
<path fill-rule="evenodd" clip-rule="evenodd" fill="none" stroke="#000000" stroke-width="0.1" stroke-linecap="round" d="
	M526.888,113.875v-0.037 M-216.813,227.875v-0.037 M-216.4,382.488v-0.037 M-216.4,525.889v-0.039"/>
</svg>
