<?xml version="1.0" encoding="utf-8"?>
<!-- Generator: Adobe Illustrator 15.0.0, SVG Export Plug-In . SVG Version: 6.00 Build 0)  -->
<!DOCTYPE svg PUBLIC "-//W3C//DTD SVG 1.1//EN" "http://www.w3.org/Graphics/SVG/1.1/DTD/svg11.dtd">
<svg version="1.1" id="Capa_1" xmlns="http://www.w3.org/2000/svg" xmlns:xlink="http://www.w3.org/1999/xlink" x="0px" y="0px"
	 width="660.066px" height="168.017px" viewBox="0 0 660.066 168.017" enable-background="new 0 0 660.066 168.017"
	 xml:space="preserve">
<image overflow="visible" width="151" height="151" xlink:href="C28CA934.jpg"  transform="matrix(0.7501 0 0 0.7501 -7507.7524 -8146.2671)">
</image>
<path fill-rule="evenodd" clip-rule="evenodd" fill="#7F7F7F" d="M512.623,71.646c-0.575-0.325-0.95-0.313-1.125,0.037
	c-0.175,0.351-0.263,1.238-0.263,2.663c0,1.825,0.138,2.787,0.413,2.888c0.35,0.149,0.6,0.188,0.75,0.112
	c0.175-0.126,0.538-0.513,1.087-1.163c0.6-0.75,0.938-1.3,1.013-1.649c0.025-0.375-0.188-0.775-0.638-1.2
	C513.235,72.309,512.822,71.747,512.623,71.646z M560.922,82.821c-1.45-0.726-2.337-1.087-2.662-1.087
	c-0.225,0-0.663,0.312-1.313,0.938c-0.6,0.675-1.05,1.012-1.35,1.012c-0.3,0-0.712,0.438-1.238,1.313
	c-0.525,0.875-0.912,1.362-1.162,1.463c-0.175,0.15-0.525,0.737-1.05,1.763c-0.45,1.1-0.737,2.737-0.862,4.912
	c-0.025,1.601,0,2.649,0.075,3.15c0.101,0.5,0.438,1.3,1.013,2.399c0.65,1.25,1.225,2.162,1.725,2.738
	c0.525,0.574,1.525,1.362,3,2.362c1.325,0.949,2.325,1.462,3,1.537c0.5,0,1.287-0.313,2.362-0.938
	c1.05-0.675,2.025-1.45,2.925-2.325c1.1-1,1.95-2.25,2.55-3.75c0.65-1.524,0.975-3.074,0.975-4.649c0-1.4-0.113-2.163-0.337-2.288
	c-0.2-0.124-0.3-0.387-0.3-0.787c0-0.9-0.8-2.2-2.4-3.9C564.297,85.034,562.647,83.747,560.922,82.821z M546.035,58.971l1.688-4.538
	l11.813,0.676c5.575,0.7,9.637,1.149,12.188,1.35c5.425,0.6,8.6,0.975,9.525,1.125c0.35,0.075,0.6,0.45,0.75,1.125
	c0.125,0.625,0.313,2.125,0.563,4.5c0.075,0.9,0.175,1.475,0.3,1.725c0.125,0.275,0.413,0.513,0.863,0.713
	c0.425,0.2,0.8,0.3,1.125,0.3c0.3,0,0.775-0.1,1.425-0.3c0.95-0.225,2-0.338,3.15-0.338c1.125,0,3.238,0.113,6.338,0.338l8.25,0.638
	c1.825,0.125,3.188,0.412,4.087,0.862s2.262,1.563,4.087,3.338l2.175,1.987l-2.025,2.063c-1.3,1.3-2.075,1.95-2.325,1.95
	c-0.275,0-0.638,0.287-1.088,0.862c-0.425,0.524-0.637,0.963-0.637,1.313c0,0.675,0.537,1.85,1.612,3.524
	c1.2,1.95,2.063,3.888,2.587,5.813c0.3,0.875,0.713,1.463,1.238,1.763c0.525,0.275,1.775,0.587,3.75,0.938l6.487,1.275v1.95
	c0,1.149-0.125,2.274-0.375,3.375c-0.2,1.1-0.475,1.837-0.825,2.212c-0.225,0.25-0.6,0.399-1.125,0.45
	c-0.45,0.05-1.476,0.075-3.075,0.075c-2.475,0-3.788,0.125-3.938,0.375c-0.15,0.225-0.575,0.337-1.275,0.337
	c-0.5,0-1.025,0.213-1.575,0.638c-0.6,0.375-0.9,0.75-0.9,1.125c0,0.3-0.475,1.113-1.425,2.438c-0.95,1.351-1.8,2.412-2.55,3.188
	c-1.3,1.4-1.875,2.476-1.725,3.226c0.101,0.75,1.112,2.175,3.038,4.274l1.763,1.875l-1.125,1.125
	c-0.275,0.275-4.425,1.625-12.45,4.05c-8,2.4-12.3,3.601-12.9,3.601c-1.325,0-2.663-0.338-4.013-1.013
	c-1.35-0.7-2.188-0.975-2.512-0.825c-0.575,0.25-1.212,1.463-1.913,3.638c-0.2,0.575-0.388,0.95-0.563,1.125
	c-0.175,0.175-0.513,0.274-1.013,0.3c-0.35,0.024-3.6,0.625-9.75,1.8c-6.2,1.175-9.325,1.801-9.375,1.875
	c-0.175,0.301-4.837,0.188-13.987-0.337c-0.225-0.025-0.663-1.4-1.313-4.125c-0.675-2.775-1.15-4.263-1.425-4.463
	c-0.45-0.225-2.388-0.8-5.813-1.725c-3.625-1-5.513-1.375-5.663-1.125c-0.05,0.1-1.962,0.387-5.738,0.862
	c-3.725,0.5-5.899,0.75-6.525,0.75c-0.75,0-1.962-0.426-3.637-1.275c-1.525-0.899-2.313-1.35-2.363-1.35
	c-0.175,0-0.95,0.663-2.325,1.987c-1.425,1.301-2.35,1.95-2.775,1.95c-0.2,0-4.087,1.125-11.662,3.375
	c-7.6,2.25-11.425,3.425-11.475,3.525c-0.15,0.225-3.25,0.337-9.3,0.337h-9.075l-9.675-9.638v-13.387
	c0-8.851,0.138-13.388,0.413-13.613c0.375-0.325,10.013-0.625,28.913-0.899c7.275-0.15,11.212-0.263,11.813-0.338
	c0.45-0.1,0.75-0.513,0.9-1.237c0.45-2.875,0.8-4.463,1.05-4.763c0.175-0.3,0.862-0.55,2.063-0.75c1.2-0.199,2.562-0.3,4.087-0.3
	c2.05,0,3.625-0.162,4.725-0.487c1.05-0.325,1.75-0.838,2.1-1.538c0.325-0.725,0.45-1.287,0.375-1.688
	c-0.025-0.275-0.763-0.425-2.212-0.449c-1.5-0.075-5.525-0.113-12.075-0.113c-9.45,0-14.275-0.112-14.475-0.337
	c-0.275-0.25-9.087-0.525-26.438-0.825l-9.113-0.188v41.625c-4.05,1.399-8.1,2.8-12.15,4.2c-8.15,2.85-12.238,4.313-12.262,4.388
	c-0.125,0.225-3.125,0.337-9,0.337h-8.7l-2.288-2.325c-1.125-1.125-1.862-1.8-2.212-2.024c-0.35-0.2-0.875-0.3-1.575-0.3
	c-0.4,0-2.762,0.687-7.087,2.063c-4.25,1.399-6.425,2.149-6.525,2.25c-0.1,0.225-9.413,0.337-27.938,0.337h-27.675l-4.05-4.013
	c-2.7-2.6-4.237-3.838-4.612-3.712c-0.05,0.025-3.563,1.25-10.538,3.675c-6.85,2.4-10.325,3.638-10.425,3.713
	c-0.2,0.225-6.3,0.3-18.3,0.225l-18.038-0.075l-0.075-3.563c-0.05-1.725-0.125-2.725-0.225-3c-0.075-0.325-0.3-0.487-0.675-0.487
	c-0.225,0-3.538,1.125-9.938,3.375c-6.425,2.25-9.663,3.425-9.713,3.525c-0.175,0.225-7.325,0.337-21.45,0.337
	c-14.15,0-21.313-0.112-21.488-0.337c-4.3-2.876-6.875-4.313-7.725-4.313c-0.4,0-2.763,0.687-7.088,2.063
	c-4.225,1.375-6.4,2.125-6.525,2.25c-0.25,0.25-3.313,0.325-9.188,0.225l-8.813-0.075l-0.188-5.1c-3.275,0.8-6.563,1.6-9.862,2.399
	c-6.6,1.625-9.913,2.476-9.938,2.551c-0.125,0.225-3.1,0.337-8.925,0.337h-8.775l-9.675-9.675v-15.9h-1.575
	c-0.425,0-2.25,0.363-5.475,1.088c-3.2,0.725-4.862,1.138-4.987,1.237c-0.25,0.25-0.375,2.6-0.375,7.05
	c0,2.876-0.038,4.737-0.112,5.588c-0.05,0.775-0.225,1.287-0.525,1.537c-0.1,0.1-4.3,1.563-12.6,4.388
	c-8.325,2.851-12.5,4.301-12.525,4.351c-0.1,0.225-4.712,0.337-13.837,0.337h-13.65l-9.675-9.675V80.234l23.212-23.176l4.387-0.262
	c2.175-0.15,21.788-0.226,58.838-0.226l54.262,0.112l5.288,1.313c4.575,1.175,7.388,1.863,8.438,2.063
	c1.075,0.226,1.837,0.251,2.288,0.075c0.525-0.175,0.875-0.387,1.05-0.638c0.1-0.225,0.65-0.662,1.65-1.313
	c1.175-0.774,3.25-1.249,6.225-1.425c2.95-0.199,9.675-0.237,20.175-0.112c12.275,0.125,19.425,0.162,21.45,0.112
	c1.2-0.05,25.075-0.075,71.625-0.075h68.288l6.75,1.763c4.5,1.075,7.087,1.65,7.763,1.726c0.774,0,1.6-0.425,2.475-1.275
	c1.175-1.125,2.213-1.774,3.113-1.95c0.85-0.125,3.437-0.175,7.762-0.149c10.15,0.149,16.938,0.112,20.363-0.113
	c3.4-0.199,6.762-0.124,10.087,0.226c3.275,0.3,7.563,0.999,12.862,2.1c1.925,0.425,3.225,0.601,3.9,0.525
	c0.7-0.101,1.412-0.501,2.137-1.2c0.6-0.6,1.113-0.975,1.538-1.125c0.425-0.125,1.45-0.274,3.075-0.45
	c2.025-0.199,6.6-0.263,13.725-0.188c4.9,0.075,8.038,0.162,9.413,0.263c1.375,0.125,2.938,0.388,4.688,0.787l19.5,4.613l0.113,1.05
	c0.05,0.725,0.225,1.15,0.525,1.274c0.35,0.075,1.525-0.375,3.525-1.35l3.075-1.537l11.287,0.712c0.5,0.05,3.563,0.237,9.188,0.563
	c2.8,0.101,4.525,0.063,5.175-0.112c0.6-0.175,1.025-0.737,1.275-1.688C545.373,60.571,545.635,59.846,546.035,58.971z
	 M346.647,81.583c-11.3-0.15-28.913-0.225-52.837-0.225c-23.95,0-39.138,0.074-45.563,0.225l-10.2,0.15l-0.375,1.05
	c-0.25,0.775-0.375,4.487-0.375,11.138c0,5.149,0.075,8.438,0.225,9.862c0.175,1.45,0.563,2.362,1.163,2.737
	c0.2,0.15,3.563,0.3,10.087,0.45l11.438,0.3v-6c0-4,0.125-6.112,0.375-6.338c0.425-0.225,1.675-0.412,3.75-0.563l17.212-1.199
	c2.875-0.201,10-0.375,21.375-0.525l16.95-0.15v0.825c0,0.575,0.438,0.926,1.313,1.05c0.85,0.125,2.9,0.125,6.15,0
	c2.975-0.1,9.663-0.212,20.063-0.337c9.7-0.15,14.913-0.263,15.638-0.338c0.35-0.075,0.575-0.387,0.675-0.938
	c0.05-0.5,0.075-2.212,0.075-5.138v-5.887L346.647,81.583z M98.698,91.671c0.575,0.1,3.55,0.188,8.925,0.262
	c5.125,0,8.262,0.063,9.413,0.188c0.625,0.1,1.025,0.213,1.2,0.338s0.275,0.4,0.3,0.825c0.075,0.55,0.313,0.899,0.712,1.05
	c0.325,0.075,1.45,0.075,3.375,0l18-0.3c9.95-0.15,15.263-0.263,15.938-0.338c0.35-0.075,0.563-0.387,0.638-0.938
	c0.075-0.5,0.112-2.212,0.112-5.138v-5.887h-16.837c-11.275,0-16.962-0.113-17.063-0.338c-0.1-0.25-4.425-0.375-12.975-0.375h-12.75
	v10.425L98.698,91.671z"/>
<path fill-rule="evenodd" clip-rule="evenodd" fill="#E97C20" d="M588.56,90.171l-0.188,0.412l1.35-6.75l-0.113-4.575l10.238,1.838
	l0.15,4.162l-0.975,4.088L588.56,90.171z M510.935,86.308l-8.587-1.537l-0.188-4.463l1.012-4.199l8.85-0.713l1.388-2.588l1.35-2.55
	l3.9-4.313l1.35-0.638l1.2,0.676l4.95-3.713l5.887-2.963l-0.787-1.05l6.45-2.1l7.575-1.2l2.587-7.2l5.888-0.149l5.813,0.712
	l1.162,7.425l-0.075,0.113l6.788,1.8l6.337,2.85l0.188,0.112l5.288,3.525l4.35,4.313l3.075,4.875l1.688,5.175l0.188,5.325
	l-1.237,5.213l-2.7,4.987l-3.975,4.5l-5.175,3.862l-6.113,3.075l-6.862,2.175l-8.1,1.2l-6.75,0.112l-7.425-0.9l-7.013-1.875
	l-6.337-2.813l-5.475-3.675l-4.35-4.313l-3.075-4.875l-1.688-5.175l-0.188-5.287l1.237-5.25l-1.313,0.6l-1.237,5.25L510.935,86.308z
	 M584.735,68.871l-4.688-4.612l-5.475-3.638l9.075-3.824l4.275,2.85l3.413,3.412L584.735,68.871z M519.973,64.971l-5.063-6.75
	l2.7-2.025l4.8-2.438l8.212,4.688l-6.112,3.075L519.973,64.971z M560.66,55.859l-0.263-0.075l-7.387-1.05l-7.725,0.225l0.413,1.125
	l7.2-0.15l7.125,0.863L560.66,55.859z M543.147,66.771l-4.05,1.275l-3.6,1.8l-3.038,2.287l-2.362,2.663l-1.575,2.925l-0.75,3.075
	l0.15,3.149l0.975,3.038l1.8,2.85l2.587,2.588l3.188,2.137l3.75,1.65l4.2,1.162l4.313,0.488l4.013-0.075l4.763-0.713l4.012-1.274
	l3.638-1.801l3.038-2.287l2.362-2.662l1.575-2.926l0.75-3.074l-0.15-3.15l-0.975-3.037l-1.8-2.851l-2.587-2.55l-3.188-2.175
	l-3.788-1.65l-4.125-1.125l-4.35-0.524l-4.462,0.074L543.147,66.771z M578.172,111.808l-8.212-4.688l0.6-0.375l6.112-3.074
	l4.95-3.713l0.038,0.037l2.625,3.075l0.038,0.038l2.7,3.262l-4.05,3L578.172,111.808z M456.823,69.096V54.921l5.962-5.813h22.5
	v19.987H456.823z M464.323,109.109v-1.538l-7.5-7.5V78.921l28.387,0.074l0.075,22.613l-7.5,7.5H464.323z M515.81,96.621l4.388,4.275
	l5.813,4.05l-7.425,3.15l-4.612-3.075l-3.563-3.525l5.438-4.8L515.81,96.621z M555.297,110.609l-2.587,7.237l-5.887,0.112
	l-5.813-0.713l-1.125-7.35l-0.038-0.075l7.8,0.938L555.297,110.609z M93.26,79.109v12H73.31v18H50.735l1.5-0.038v-1.5l-7.5-7.5
	v-32.55l17.25-18.412h41.363v19.987H73.235v10.013H93.26z M127.385,107.571l-7.463-7.462v-21h36h1.5V69.096h-1.5h-36.188V49.109
	h51.188l7.463,7.313l0.037,45.188l-7.5,7.5h-13.5v-18h-1.5h-15v18h-15l1.5-0.038v-1.462v-0.038H127.385z M234.598,49.109v19.987h-21
	v12.337v9.676h22.5v18h-35.925v-1.538l-5.475-7.5V54.958l6-5.85H234.598z M251.06,69.096V49.109h58.5v19.987H251.06z
	 M347.172,81.433v9.676h15h1.5V69.096h-1.5h-36.15V49.109h51.15l7.5,7.313v45.188l-7.5,7.5h-42.3l-6.225-6.075l-2.362-2.288
	l-0.337-0.337l0.037-21.3l21.188-0.038V81.433z M420.185,81.433v27.676h-14.55l-4.688-7.988V54.958l6-5.85h29.7l7.5,7.313v12.675
	h-23.962V81.433z M266.06,79.109h28.5v30h-28.5V79.109z"/>
<path fill-rule="evenodd" clip-rule="evenodd" fill="#983103" d="M574.573,60.621l5.475,3.638l4.688,4.612l3.188,5.025l1.35,4.275
	l0.337,1.087l0.113,4.575l-1.35,6.75l-2.587,4.725l-4.163,4.65l-4.95,3.713l-6.112,3.074l-0.6,0.375l-0.6-1.649l6.113-3.075
	l5.175-3.862l3.975-4.5l2.7-4.987l1.237-5.213l-0.188-5.325l-1.688-5.175l-3.075-4.875l-4.35-4.313l-5.288-3.525H574.573z
	 M520.01,65.308l-1.35,0.638l1.313-0.975l4.538-3.45l6.112-3.075l0.638-0.188l-6.075,3.188L520.01,65.308z M560.66,55.859
	l-0.638,0.938l-7.125-0.863l-7.2,0.15l-0.413-1.125l7.725-0.225l7.387,1.05L560.66,55.859z"/>
<path fill-rule="evenodd" clip-rule="evenodd" fill="#744923" d="M560.397,67.638l-1.913,5.114l-3.337-0.903l-3.563-0.413
	l-3.6,0.075l-3.525,0.563l-1.313-5.302l4.313-0.715l4.462-0.074l4.35,0.525L560.397,67.638z"/>
<path fill-rule="evenodd" clip-rule="evenodd" fill="#FDF1AF" d="M503.172,76.109l-1.012,4.199l0.188,4.463l-1.613-0.3l-0.188-4.163
	l1.013-4.087L503.172,76.109z M514.91,58.221l5.063,6.75l-1.313,0.975l-5.1-6.75h0.038L514.91,58.221z M570.56,89.046l-3.6,0.824
	l0.45-0.824l0.637-1.238l0.6-2.512l-0.112-2.551l-0.788-2.475l-1.5-2.325l-2.063-2.1l-2.625-1.726l-3.075-1.387l1.913-5.101
	l3.788,1.65l3.188,2.175l2.587,2.55l1.8,2.851l0.975,3.037l0.15,3.15l-0.75,3.074L570.56,89.046z M455.285,69.096V56.421l1.538-1.5
	v14.175H455.285z M455.285,101.609V78.921h1.538v21.149l7.5,7.5v1.538h-1.538L455.285,101.609z M526.01,104.946l-5.813-4.05
	l-4.388-4.275l-3.15-4.949l-1.725-5.363l-0.15-5.662l1.237-5.25l1.313-0.6l-1.237,5.25l0.188,5.287l1.688,5.175l3.075,4.875
	l4.35,4.313l5.475,3.675l6.337,2.813l7.013,1.875l-0.375,1.763l-7.275-1.912L526.01,104.946z M510.41,101.496l3.563,3.525
	l4.612,3.075l-1.65,0.675l-4.275-2.85l-3.413-3.413L510.41,101.496z M119.735,49.109v19.987h-1.5V49.109H119.735z M118.422,79.109
	h1.5v21l7.463,7.462l0.037,0.038v1.462l-1.5,0.038l-7.5-7.5V79.109z M193.198,101.609V56.421l1.5-1.463v45.112l5.475,7.5v1.538
	h-1.575L193.198,101.609z M249.56,69.096V49.109h1.5v19.987H249.56z M324.485,69.096l-0.037-19.95l0.037-0.037h1.538v19.987H324.485
	z M399.448,101.609V56.421l1.5-1.463v46.162l4.688,7.988h-1.8L399.448,101.609z M50.735,109.109l-7.5-7.5V69.096l1.5-1.575v32.55
	l7.5,7.5v1.5L50.735,109.109z M155.922,69.096h1.5v10.013h-1.5V69.096z M157.422,109.109h-1.5v-18h1.5V109.109z M332.172,109.109
	l-6.225-6.075l-1.463-1.425V79.146l1.5-0.037l-0.037,21.3l0.337,0.337l2.362,2.288l6.225,6.075H332.172z M362.172,91.109v-9.676
	V69.096h1.5v22.013H362.172z M266.06,79.109v30h-1.5v-30H266.06z"/>
<path fill-rule="evenodd" clip-rule="evenodd" fill="#6C2B06" d="M509.248,102.508l-0.862,2.288l-0.488-0.788l-1.95-6.037
	l4.987-11.663l1.725,5.363l3.15,4.949l0.038,0.075l-5.438,4.8L509.248,102.508z M500.735,84.471l-6.337,11.438l-0.188-4.688
	l1.125-4.65l6.225-10.35l-1.013,4.087L500.735,84.471z M567.41,89.046l-0.113,0.149l-1.05-1.649l-2.063-2.101l-2.625-1.725
	l-3.075-1.388v-9.6l3.075,1.387l2.625,1.726l2.063,2.1l1.5,2.325l0.788,2.475l0.112,2.551l-0.6,2.512L567.41,89.046z
	 M455.285,56.421v12.675l-3.788,12.337V65.796L455.285,56.421z M455.285,78.921v22.688l-3.788,20.438V93.921l3.188-12.488
	l0.563-2.512H455.285z M110.81,81.433V56.421l7.425-7.313v19.987L110.81,81.433z M193.198,101.609l-7.388,20.438v-56.25l7.388-9.375
	V101.609z M118.422,79.109v22.5l-7.612,20.438V93.921l6.413-12.488L118.422,79.109z M264.56,79.109v30l-3.75,22.313v-37.5
	l3.15-12.488L264.56,79.109z M249.56,69.096l-7.5,12.337V56.421l7.5-7.313V69.096z M324.448,49.146l0.037,19.95l-7.425,12.337
	V56.421L324.448,49.146z M399.448,56.421v45.188l-7.388,20.438v-56.25L399.448,56.421z M43.235,69.096v32.513l-7.425,20.438V81.433
	L43.235,69.096z M324.485,79.146v22.463l-7.425,20.438V93.921l6.413-12.488l1.012-2.324V79.146z"/>
<path fill-rule="evenodd" clip-rule="evenodd" fill="#2D1403" d="M588.56,90.171l10.462-0.825l6.225,12.037l-11.813,0.938
	L588.56,90.171z M553.01,133.521l-6.638,0.112l-6.563-0.787l1.2-15.601l5.813,0.713l5.887-0.112L553.01,133.521z M555.935,125.346
	l-0.638-14.737l7.575-1.2l7.087-2.288l2.513,14.325l-7.988,2.513L555.935,125.346z M502.348,84.771l8.587,1.537l-4.987,11.663
	l-11.55-2.063l6.337-11.438L502.348,84.771z M558.485,72.734v9.6l-3.337-0.9l-3.563-0.412l-3.6,0.075l-3.525,0.563l-3.3,1.05
	l-2.925,1.463l-2.475,1.837v-9.6l2.475-1.838l2.925-1.462l3.3-1.051l3.525-0.563l3.6-0.074l3.563,0.412L558.485,72.734z
	 M485.21,78.996l-28.387-0.074h-1.538h-0.038l-0.563,2.512h-3.188l3.788-12.337h1.538h28.462l3.712,12.337h-3.15L485.21,78.996z
	 M460.873,131.421l1.913-22.313h1.538h13.462l1.837,22.313H460.873z M103.348,69.096l7.462,12.337H94.047l-0.787-2.324H73.235
	V69.096H103.348z M45.185,131.421l5.55-22.313H73.31v-18h19.95l5.063,18H73.31v22.313H45.185z M234.598,69.096l7.462,12.337h-28.462
	V69.096H234.598z M118.422,79.109l-1.2,2.324h-6.413l7.425-12.337h1.5h36.188v10.013h-36H118.422z M170.922,109.109l5.513,22.313
	h-20.513v-22.313h-15v22.313h-20.737l5.737-22.313h15v-18h15v18h1.5H170.922z M236.098,109.109l5.962,22.313h-46.875l3.413-22.313
	h1.575H236.098z M309.56,69.096l7.5,12.337l7.425-12.337h1.538h36.15v12.337h-15v-2.362l-21.188,0.038h-1.5l-1.012,2.324h-6.413
	h-21.9l-0.6-2.324h-28.5h-1.5l-0.6,2.324h-21.9l7.5-12.337h1.5H309.56z M420.185,81.433V69.096h23.962l7.35,12.337H420.185z
	 M266.06,109.109h28.5l3.75,22.313h-37.5l3.75-22.313H266.06z M377.172,109.109l5.513,22.313h-56.25l5.737-22.313h2.7H377.172z
	 M405.635,109.109h14.55v22.313h-18.75l2.4-22.313H405.635z"/>
<path fill-rule="evenodd" clip-rule="evenodd" fill="#8F2C00" d="M566.96,89.871l3.6-0.824l-2.362,2.662l-3.038,2.287l-3.638,1.801
	l-4.012,1.274l-4.763,0.713l-4.013,0.075l-4.313-0.488l-4.2-1.162l-3.75-1.65l-3.188-2.137l-2.587-2.588l-1.8-2.85l-0.975-3.038
	l-0.15-3.149l0.75-3.075l1.575-2.925l2.362-2.663l3.038-2.287l3.6-1.8l4.05-1.275l1.313,5.287l-3.3,1.051l-2.925,1.462l-2.475,1.838
	l-1.95,2.175l-1.275,2.4l-0.6,2.512l0.112,2.551l0.788,2.475l0.188,0.3l0.188,0.487l0.712,0.976l1.95,1.912l2.7,1.838l3.188,1.388
	l3.487,0.975l3.712,0.412l3.75-0.074l3.638-0.563l3.413-1.088l3.075-1.537l2.55-1.913L566.96,89.871z M520.01,65.308l5.175-3.862
	l6.075-3.188l0.787,1.05l-5.887,2.963l-4.95,3.713L520.01,65.308z"/>
<path fill-rule="evenodd" clip-rule="evenodd" fill="#1D0B00" d="M584.735,68.871l6.6-5.813l5.212,8.7l-7.275,6.413l-1.35-4.275
	L584.735,68.871z M588.56,90.171l4.875,12.149l-3.15,5.775l-1.95,2.212l3.375,10.275l-4.538,3.412l-5.438,2.7l-3.563-14.888
	l4.8-2.438l4.05-3l-2.7-3.262l-0.038-0.038l-2.625-3.075l-0.038-0.037l4.163-4.65l2.587-4.725L588.56,90.171z M512.698,123.284
	l4.237-14.513l1.65-0.675l7.425-3.15l-3.113,14.025L512.698,123.284z M535.76,86.008l-1.95,2.175l-0.6,1.125l-0.188-0.487
	l-0.188-0.3l-0.788-2.475l-0.112-2.551l0.6-2.512l1.275-2.4l1.95-2.175V86.008z M479.623,131.421l-1.837-22.313l7.5-7.5
	l3.712,20.438L479.623,131.421z M176.435,131.421l-5.513-22.313l7.5-7.5l7.388,20.438L176.435,131.421z M384.672,101.609
	l7.388,20.438l-9.375,9.375l-5.513-22.313L384.672,101.609z"/>
<path fill-rule="evenodd" clip-rule="evenodd" fill="#61300D" d="M539.885,109.896l-1.35,14.588l-8.212-2.213l-7.425-3.3
	l3.113-14.025l6.563,2.963l7.275,1.912v0.075H539.885z M513.56,59.196l5.1,6.75l-3.9,4.313l-1.35,2.55l-4.575-5.399L513.56,59.196z"
	/>
<path fill-rule="evenodd" clip-rule="evenodd" fill="#2F1003" d="M605.248,101.383l-6.225-12.037l0.975-4.088l-0.15-4.162
	l6.337,10.987l0.188,4.688L605.248,101.383z M555.935,125.346l-2.925,8.175l-0.3-15.675l2.587-7.237L555.935,125.346z
	 M488.998,122.046l-3.712-20.438l-0.075-22.613l0.638,2.438l3.15,12.488V122.046z M485.285,69.096V49.109l3.712,7.313v25.012
	L485.285,69.096z M93.26,91.109v-12l0.787,2.324l4.275,12.488v15.188L93.26,91.109z M110.81,56.421v25.012l-7.462-12.337V49.109
	L110.81,56.421z M185.81,65.796v56.25l-7.388-20.438l-0.037-45.188L185.81,65.796z M242.06,56.421v25.012l-7.462-12.337V49.109
	L242.06,56.421z M309.56,69.096V49.109l7.5,7.313v25.012L309.56,69.096z M392.06,65.796v56.25l-7.388-20.438V56.421L392.06,65.796z
	 M451.498,65.796v15.637l-7.35-12.337V56.421L451.498,65.796z M242.06,131.421l-5.962-22.313v-18l5.962,17.813V131.421z
	 M294.56,109.109v-30l0.6,2.324l3.15,12.488v37.5L294.56,109.109z"/>
<path fill-rule="evenodd" clip-rule="evenodd" fill="#3D1000" d="M569.96,107.121l-7.087,2.288l-7.575,1.2l-7.65,0.149l-7.8-0.938
	l0.375-1.763l7.425,0.9l6.75-0.112l8.1-1.2l6.862-2.175L569.96,107.121z"/>
<path fill-rule="evenodd" clip-rule="evenodd" fill="#551B00" d="M572.473,121.446l-2.513-14.325l8.212,4.688l3.563,14.888
	L572.473,121.446z M541.01,117.246l-1.2,15.601l-1.275-8.325h0.038l-0.038-0.037l1.35-14.588L541.01,117.246z M516.935,108.771
	l-4.237,14.513l-4.838-3.226l-3.862-3.824l4.388-11.438l0.862-2.288l3.413,3.413L516.935,108.771z M451.498,122.046l3.788-20.438
	l7.5,7.5l-1.913,22.313L451.498,122.046z M50.735,109.109l-5.55,22.313l-9.375-9.375l7.425-20.438L50.735,109.109z M125.922,109.109
	l-5.737,22.313l-9.375-9.375l7.612-20.438L125.922,109.109z M198.598,109.109l-3.413,22.313l-9.375-9.375l7.388-20.438
	L198.598,109.109z M326.435,131.421l-9.375-9.375l7.425-20.438l1.463,1.425l6.225,6.075L326.435,131.421z M403.835,109.109
	l-2.4,22.313l-9.375-9.375l7.388-20.438L403.835,109.109z"/>
<g id="Capa_3">
</g>
<image overflow="visible" width="528" height="84" xlink:href="C28CA935.jpg"  transform="matrix(0.7501 0 0 0.7501 -7507.7524 -8146.2671)">
</image>
</svg>
